<mxfile host="app.diagrams.net" modified="2024-05-15T14:47:39.874Z" agent="Mozilla/5.0 (Windows NT 10.0; Win64; x64) AppleWebKit/537.36 (KHTML, like Gecko) Chrome/124.0.0.0 Safari/537.36" etag="vV9VCLzE9AV00Jt-nxZF" version="24.4.0" type="device">
  <diagram id="u3HEmbyoLWrBkUlyNjNU" name="Page-1">
    <mxGraphModel dx="918" dy="393" grid="1" gridSize="10" guides="1" tooltips="1" connect="1" arrows="1" fold="1" page="1" pageScale="1" pageWidth="827" pageHeight="1169" math="0" shadow="0">
      <root>
        <mxCell id="0" />
        <mxCell id="1" parent="0" />
        <mxCell id="WMbjbyXwP4fBcu2IAF67-1" value="&lt;b&gt;&lt;font style=&quot;font-size: 14px;&quot;&gt;Commencer le jeu&lt;/font&gt;&lt;/b&gt;" style="rounded=1;whiteSpace=wrap;html=1;fillColor=#D5E8D4;" parent="1" vertex="1">
          <mxGeometry x="349" y="40" width="130" height="60" as="geometry" />
        </mxCell>
        <mxCell id="WMbjbyXwP4fBcu2IAF67-2" value="&lt;span style=&quot;font-size: 14px;&quot;&gt;&lt;b&gt;Quittez le jeu&lt;/b&gt;&lt;/span&gt;" style="rounded=1;whiteSpace=wrap;html=1;fillColor=#D5E8D4;" parent="1" vertex="1">
          <mxGeometry x="349" y="130" width="130" height="60" as="geometry" />
        </mxCell>
        <mxCell id="WMbjbyXwP4fBcu2IAF67-3" value="&lt;span style=&quot;font-size: 14px;&quot;&gt;&lt;b&gt;Déplacer le personnage&lt;/b&gt;&lt;/span&gt;" style="rounded=1;whiteSpace=wrap;html=1;fillColor=#D5E8D4;" parent="1" vertex="1">
          <mxGeometry x="349" y="220" width="130" height="60" as="geometry" />
        </mxCell>
        <mxCell id="WMbjbyXwP4fBcu2IAF67-4" value="&lt;span style=&quot;font-size: 14px;&quot;&gt;&lt;b&gt;Gagner des points&lt;/b&gt;&lt;/span&gt;" style="rounded=1;whiteSpace=wrap;html=1;fillColor=#D5E8D4;" parent="1" vertex="1">
          <mxGeometry x="349" y="310" width="130" height="60" as="geometry" />
        </mxCell>
        <mxCell id="WMbjbyXwP4fBcu2IAF67-5" value="&lt;span style=&quot;font-size: 14px;&quot;&gt;&lt;b&gt;Afficher le score&lt;/b&gt;&lt;/span&gt;" style="rounded=1;whiteSpace=wrap;html=1;fillColor=#D5E8D4;" parent="1" vertex="1">
          <mxGeometry x="349" y="400" width="130" height="60" as="geometry" />
        </mxCell>
        <mxCell id="WMbjbyXwP4fBcu2IAF67-6" value="&lt;span style=&quot;font-size: 14px;&quot;&gt;&lt;b&gt;Redémarrez le jeu&lt;/b&gt;&lt;/span&gt;" style="rounded=1;whiteSpace=wrap;html=1;fillColor=#D5E8D4;" parent="1" vertex="1">
          <mxGeometry x="349" y="490" width="130" height="60" as="geometry" />
        </mxCell>
        <mxCell id="WMbjbyXwP4fBcu2IAF67-7" value="" style="rounded=0;whiteSpace=wrap;html=1;fillColor=none;" parent="1" vertex="1">
          <mxGeometry x="260" y="20" width="526" height="860" as="geometry" />
        </mxCell>
        <mxCell id="WMbjbyXwP4fBcu2IAF67-8" value="Actor" style="shape=umlActor;verticalLabelPosition=bottom;verticalAlign=top;html=1;outlineConnect=0;" parent="1" vertex="1">
          <mxGeometry x="40" y="261" width="30" height="60" as="geometry" />
        </mxCell>
        <mxCell id="WMbjbyXwP4fBcu2IAF67-12" style="edgeStyle=orthogonalEdgeStyle;rounded=0;orthogonalLoop=1;jettySize=auto;html=1;exitX=0.5;exitY=0.5;exitDx=0;exitDy=0;exitPerimeter=0;entryX=-0.01;entryY=0.474;entryDx=0;entryDy=0;entryPerimeter=0;" parent="1" source="WMbjbyXwP4fBcu2IAF67-8" target="WMbjbyXwP4fBcu2IAF67-7" edge="1">
          <mxGeometry relative="1" as="geometry" />
        </mxCell>
        <mxCell id="WXc6SI7NDcqdJfZjfngf-2" value="Pause" style="rounded=1;whiteSpace=wrap;html=1;" vertex="1" parent="1">
          <mxGeometry x="490" y="40" width="120" height="60" as="geometry" />
        </mxCell>
        <mxCell id="WXc6SI7NDcqdJfZjfngf-3" value="Echouer" style="rounded=1;whiteSpace=wrap;html=1;" vertex="1" parent="1">
          <mxGeometry x="490" y="130" width="120" height="60" as="geometry" />
        </mxCell>
      </root>
    </mxGraphModel>
  </diagram>
</mxfile>
